<svg width="12" height="12" viewBox="0 0 12 12" fill="none" xmlns="http://www.w3.org/2000/svg">
<path d="M6.58332 3.66648C7.81007 3.66648 8.33332 4.18973 8.33332 5.41648H9.49998C9.49998 3.53523 8.46457 2.49981 6.58332 2.49981V3.66648ZM8.57948 6.84156C8.46739 6.73969 8.3201 6.68535 8.1687 6.69003C8.0173 6.69471 7.87365 6.75804 7.76807 6.86665L6.37215 8.30223C6.03615 8.23806 5.36065 8.02748 4.66532 7.3339C3.96998 6.63798 3.7594 5.96073 3.69698 5.62706L5.1314 4.23056C5.24014 4.12506 5.30356 3.98138 5.30824 3.82993C5.31292 3.67849 5.2585 3.53117 5.15648 3.41915L3.00107 1.04906C2.89901 0.936689 2.75716 0.868525 2.60565 0.859049C2.45415 0.849573 2.30491 0.899531 2.18965 0.998314L0.923815 2.0839C0.822963 2.18511 0.762768 2.31983 0.754648 2.46248C0.745898 2.60831 0.579065 6.06281 3.25773 8.74265C5.59456 11.0789 8.52173 11.2498 9.3279 11.2498C9.44573 11.2498 9.51807 11.2463 9.53732 11.2451C9.67995 11.2372 9.81459 11.1767 9.91532 11.0754L11.0003 9.80898C11.0992 9.69379 11.1492 9.5446 11.1399 9.39309C11.1305 9.24159 11.0624 9.0997 10.9501 8.99756L8.57948 6.84156Z" fill="white"/>
</svg>
