<svg width="56" height="56" viewBox="0 0 56 56" fill="none" xmlns="http://www.w3.org/2000/svg">
<circle cx="28" cy="28" r="27.5" fill="white" stroke="#E0DEF7"/>
<circle cx="28" cy="28" r="24.5" fill="#E0DEF7"/>
<path d="M34.4517 23.065C34.37 23.0534 34.2884 23.0534 34.2067 23.065C32.3984 23.0067 30.9634 21.525 30.9634 19.705C30.9634 17.85 32.4684 16.3334 34.335 16.3334C36.19 16.3334 37.7067 17.8384 37.7067 19.705C37.695 21.525 36.26 23.0067 34.4517 23.065Z" fill="white"/>
<path d="M38.255 31.15C36.9484 32.025 35.1167 32.3517 33.425 32.13C33.8684 31.1733 34.1017 30.1117 34.1134 28.9917C34.1134 27.825 33.8567 26.7166 33.3667 25.7483C35.0934 25.515 36.925 25.8416 38.2434 26.7166C40.0867 27.93 40.0867 29.925 38.255 31.15Z" fill="white"/>
<path d="M21.5134 23.065C21.595 23.0534 21.6767 23.0534 21.7584 23.065C23.5667 23.0067 25.0017 21.525 25.0017 19.705C25.0017 17.8384 23.4967 16.3334 21.63 16.3334C19.775 16.3334 18.27 17.8384 18.27 19.705C18.27 21.525 19.705 23.0067 21.5134 23.065Z" fill="white"/>
<path d="M21.6417 28.9916C21.6417 30.1233 21.8867 31.1966 22.33 32.165C20.685 32.34 18.97 31.99 17.71 31.1616C15.8667 29.9366 15.8667 27.9416 17.71 26.7166C18.9583 25.8766 20.72 25.5383 22.3767 25.725C21.8983 26.705 21.6417 27.8133 21.6417 28.9916Z" fill="white"/>
<path d="M28.14 32.515C28.0466 32.5033 27.9416 32.5033 27.8366 32.515C25.69 32.445 23.975 30.6833 23.975 28.5133C23.9866 26.2967 25.7716 24.5 28 24.5C30.2166 24.5 32.0133 26.2967 32.0133 28.5133C32.0016 30.6833 30.2983 32.445 28.14 32.515Z" fill="white"/>
<path d="M24.3483 34.93C22.5867 36.1083 22.5867 38.045 24.3483 39.2116C26.355 40.5533 29.645 40.5533 31.6517 39.2116C33.4134 38.0333 33.4134 36.0966 31.6517 34.93C29.6567 33.5883 26.3667 33.5883 24.3483 34.93Z" fill="white"/>
<path d="M35 43C35 38.5817 38.5817 35 43 35H48C52.4183 35 56 38.5817 56 43V48C56 52.4183 52.4183 56 48 56H43C38.5817 56 35 52.4183 35 48V43Z" fill="#7065F0"/>
<path d="M50.0442 47.2091C48.8425 48.405 47.1217 48.7725 45.6108 48.3L42.8633 51.0416C42.665 51.2458 42.2742 51.3683 41.9942 51.3275L40.7225 51.1525C40.3025 51.0941 39.9117 50.6975 39.8475 50.2775L39.6725 49.0058C39.6317 48.7258 39.7658 48.335 39.9583 48.1366L42.7 45.395C42.2333 43.8783 42.595 42.1575 43.7967 40.9616C45.5175 39.2408 48.3117 39.2408 50.0383 40.9616C51.765 42.6825 51.765 45.4883 50.0442 47.2091Z" fill="white"/>
<path d="M42.5192 48.7025L43.8608 50.0442" stroke="#7065F0" stroke-width="2" stroke-miterlimit="10" stroke-linecap="round" stroke-linejoin="round"/>
<path d="M46.9584 44.9166C47.4416 44.9166 47.8334 44.5249 47.8334 44.0416C47.8334 43.5584 47.4416 43.1666 46.9584 43.1666C46.4751 43.1666 46.0834 43.5584 46.0834 44.0416C46.0834 44.5249 46.4751 44.9166 46.9584 44.9166Z" fill="#7065F0" stroke="#7065F0" stroke-width="2" stroke-linecap="round" stroke-linejoin="round"/>
</svg>
