<svg width="58" height="62" viewBox="0 0 58 62" fill="none" xmlns="http://www.w3.org/2000/svg">
<circle cx="29" cy="29" r="28.5" stroke="#E0DEF7"/>
<circle cx="29" cy="29" r="25.375" fill="#E0DEF7"/>
<path d="M36 49C36 44.5817 39.5817 41 44 41H49C53.4183 41 57 44.5817 57 49V54C57 58.4183 53.4183 62 49 62H44C39.5817 62 36 58.4183 36 54V49Z" fill="#7065F0"/>
<g clip-path="url(#clip0_276_974)">
<path d="M36.5 16H21.875C20.9812 16 20.25 16.7594 20.25 17.6875V41.3125C20.25 42.2406 20.9812 43 21.875 43H36.5C37.3937 43 38.125 42.2406 38.125 41.3125V17.6875C38.125 16.7594 37.3937 16 36.5 16ZM29.1875 41.7816C28.4888 41.7816 27.9233 41.1944 27.9233 40.4688C27.9233 39.7431 28.4888 39.1559 29.1875 39.1559C29.8862 39.1559 30.4517 39.7431 30.4517 40.4688C30.4517 41.1944 29.8862 41.7816 29.1875 41.7816ZM36.5 37.9375H21.875V19.375H36.5V37.9375Z" fill="white"/>
</g>
<path d="M52.25 53.75C52.25 54.0594 52.1271 54.3562 51.9083 54.575C51.6895 54.7937 51.3928 54.9167 51.0833 54.9167H44.0833L41.75 57.25V47.9167C41.75 47.6072 41.8729 47.3105 42.0917 47.0917C42.3105 46.8729 42.6072 46.75 42.9167 46.75H51.0833C51.3928 46.75 51.6895 46.8729 51.9083 47.0917C52.1271 47.3105 52.25 47.6072 52.25 47.9167V53.75Z" stroke="white" stroke-linecap="round" stroke-linejoin="round"/>
<defs>
<clipPath id="clip0_276_974">
<rect width="26" height="28" fill="white" transform="translate(17 16)"/>
</clipPath>
</defs>
</svg>
