<svg width="40" height="40" viewBox="0 0 40 40" fill="none" xmlns="http://www.w3.org/2000/svg">
<circle cx="20" cy="20" r="19.25" fill="white" stroke="#E8E6F9" stroke-width="1.5"/>
<path d="M22.0001 14.5C22 13.9135 22.2062 13.3456 22.5825 12.8958C22.9589 12.446 23.4815 12.1428 24.0588 12.0392C24.6362 11.9357 25.2315 12.0385 25.7408 12.3296C26.25 12.6206 26.6406 13.0815 26.8444 13.6314C27.0481 14.1814 27.0519 14.7855 26.8552 15.338C26.6585 15.8905 26.2737 16.3563 25.7682 16.6538C25.2627 16.9513 24.6687 17.0616 24.0901 16.9655C23.5115 16.8693 22.9851 16.5728 22.6031 16.1277L15.8852 19.2473C16.0396 19.7367 16.0396 20.2617 15.8852 20.7511L22.6031 23.8706C23.0069 23.401 23.5707 23.0981 24.1852 23.0204C24.7998 22.9428 25.4212 23.096 25.9292 23.4504C26.4372 23.8048 26.7955 24.3351 26.9347 24.9386C27.0739 25.5421 26.984 26.1758 26.6826 26.7168C26.3812 27.2579 25.8896 27.6678 25.3031 27.867C24.7166 28.0663 24.0771 28.0408 23.5083 27.7955C22.9396 27.5502 22.4822 27.1025 22.2248 26.5391C21.9674 25.9758 21.9283 25.337 22.1151 24.7465L15.3972 21.627C15.0646 22.0145 14.6214 22.2909 14.127 22.4189C13.6326 22.547 13.1109 22.5206 12.632 22.3433C12.1531 22.1661 11.7399 21.8464 11.4482 21.4273C11.1564 21.0082 11 20.5098 11 19.9992C11 19.4886 11.1564 18.9902 11.4482 18.5711C11.7399 18.152 12.1531 17.8323 12.632 17.655C13.1109 17.4778 13.6326 17.4514 14.127 17.5794C14.6214 17.7075 15.0646 17.9839 15.3972 18.3714L22.1151 15.2519C22.0386 15.0086 21.9998 14.755 22.0001 14.5Z" fill="#7065F0"/>
</svg>
