<svg width="14" height="14" viewBox="0 0 14 14" fill="none" xmlns="http://www.w3.org/2000/svg">
<g clip-path="url(#clip0_67_267)">
<path d="M11.9547 2.03529C11.31 1.38735 10.5423 0.873685 9.69613 0.524254C8.84999 0.174822 7.94242 -0.00337821 7.02637 4.84967e-05C3.18797 4.84967e-05 0.059769 3.11329 0.0562531 6.93527C0.0562531 8.1594 0.377951 9.35027 0.985309 10.4046L0 14L3.69513 13.0358C4.7169 13.5907 5.86241 13.8811 7.02637 13.8801H7.02988C10.8692 13.8801 13.9965 10.7669 14 6.9414C14.0008 6.02971 13.8204 5.12686 13.4692 4.28486C13.118 3.44285 12.6039 2.67832 11.9547 2.03529ZM7.02637 12.7059C5.98848 12.7051 4.96981 12.4271 4.07659 11.9009L3.86564 11.7749L1.67353 12.3471L2.25891 10.2183L2.1218 9.99864C1.54152 9.08018 1.23462 8.01679 1.23669 6.93177C1.23669 3.75904 3.83576 1.17079 7.02988 1.17079C7.79083 1.16944 8.54452 1.31803 9.24751 1.60802C9.95049 1.89801 10.5889 2.32366 11.1258 2.86041C11.6645 3.39517 12.0916 4.03076 12.3825 4.73057C12.6733 5.43038 12.8222 6.18056 12.8204 6.9379C12.8169 10.122 10.2179 12.7059 7.02637 12.7059ZM10.2038 8.38864C10.0306 8.30202 9.17541 7.8829 9.01456 7.8234C8.85459 7.76652 8.73769 7.73677 8.62343 7.91002C8.50653 8.0824 8.17252 8.47527 8.07232 8.58814C7.97212 8.70452 7.86841 8.71764 7.69437 8.63189C7.52122 8.54439 6.95957 8.36239 6.29508 7.77002C5.77649 7.31065 5.42931 6.7419 5.32559 6.56953C5.22539 6.39628 5.31592 6.30353 5.40294 6.2169C5.47941 6.1399 5.57609 6.0139 5.66311 5.91415C5.751 5.8144 5.78001 5.7409 5.83714 5.6254C5.89427 5.50815 5.86703 5.4084 5.82396 5.32178C5.78001 5.23516 5.43282 4.38028 5.28604 4.03553C5.1454 3.69516 5.00213 3.74241 4.8949 3.73804C4.7947 3.73191 4.6778 3.73191 4.5609 3.73191C4.47263 3.73415 4.38577 3.7545 4.30577 3.79168C4.22576 3.82887 4.15432 3.8821 4.09593 3.94803C3.93596 4.12128 3.48857 4.54041 3.48857 5.39528C3.48857 6.25015 4.11263 7.07177 4.20053 7.18815C4.28666 7.30452 5.42579 9.05364 7.17403 9.80614C7.58714 9.98551 7.91235 10.0914 8.16637 10.1719C8.58388 10.3049 8.96095 10.2848 9.26155 10.2419C9.59555 10.1911 10.2908 9.82189 10.4376 9.41677C10.5817 9.01077 10.5817 8.66427 10.5378 8.59164C10.4947 8.51814 10.3778 8.47527 10.2038 8.38864Z" fill="white"/>
</g>
<defs>
<clipPath id="clip0_67_267">
<rect width="14" height="14" fill="white"/>
</clipPath>
</defs>
</svg>
