<svg width="40" height="40" viewBox="0 0 40 40" fill="none" xmlns="http://www.w3.org/2000/svg">
<circle cx="20" cy="20" r="19.25" fill="white" stroke="#E8E6F9" stroke-width="1.5"/>
<path d="M13.5983 15.2649C13.2501 15.6131 12.9739 16.0265 12.7854 16.4815C12.5969 16.9364 12.4999 17.4241 12.4999 17.9165C12.4999 18.409 12.5969 18.8966 12.7854 19.3516C12.9739 19.8066 13.2501 20.22 13.5983 20.5682L20 26.9699L26.4016 20.5682C27.1049 19.8649 27.5 18.9111 27.5 17.9165C27.5 16.922 27.1049 15.9681 26.4016 15.2649C25.6984 14.5616 24.7445 14.1665 23.75 14.1665C22.7554 14.1665 21.8016 14.5616 21.0983 15.2649L20 16.3632L18.9016 15.2649C18.5534 14.9166 18.14 14.6404 17.685 14.452C17.2301 14.2635 16.7424 14.1665 16.25 14.1665C15.7575 14.1665 15.2699 14.2635 14.8149 14.452C14.3599 14.6404 13.9465 14.9166 13.5983 15.2649V15.2649Z" stroke="#7065F0" stroke-width="2" stroke-linecap="round" stroke-linejoin="round"/>
<path d="M23.6364 13C22.1091 13 20.7636 13.9333 20 15.4C19.2364 13.9333 17.8909 13 16.3636 13C13.9636 13 12 15.4 12 18.3333C12 23.6222 20 29 20 29C20 29 28 23.6667 28 18.3333C28 15.4 26.0364 13 23.6364 13Z" fill="#F848C7"/>
</svg>
